<svg xmlns="http://www.w3.org/2000/svg" width="85" height="30" viewBox="0 0 62.695 22.624"><defs><style>.a{fill:#fff;}</style></defs><g transform="translate(0)"><path class="a" d="M57.115,20.7a3.159,3.159,0,0,1-2.337,1,2.858,2.858,0,0,1-2.254-1,3.159,3.159,0,0,1-1-2.337,3.032,3.032,0,0,1,1-2.337,2.741,2.741,0,0,1,2.254-.918,3.082,3.082,0,0,1,2.337.918,3.427,3.427,0,0,1,.918,2.337,3.082,3.082,0,0,1-.918,2.337M59.2,13.937A6.056,6.056,0,0,0,54.778,12.1a5.745,5.745,0,0,0-4.341,1.837A6.056,6.056,0,0,0,48.6,18.361a5.925,5.925,0,0,0,1.837,4.425,5.745,5.745,0,0,0,4.341,1.837A6.4,6.4,0,0,0,59.2,22.786a6.248,6.248,0,0,0,0-8.849" transform="translate(-8.028 -1.999)"/><path class="a" d="M7.68,8.4a7.309,7.309,0,0,0-5.426,2.254A7.63,7.63,0,0,0,0,16.164a7.63,7.63,0,0,0,2.254,5.51A7.309,7.309,0,0,0,7.68,23.928a7.37,7.37,0,0,0,4.675-1.586,7.514,7.514,0,0,0,2.671-4.091H11.938a6.493,6.493,0,0,1-1.67,2,4.832,4.832,0,0,1-2.5.751,4.541,4.541,0,0,1-3.339-1.419,4.287,4.287,0,0,1-1.336-3.339,4.467,4.467,0,0,1,1.336-3.339,4.541,4.541,0,0,1,3.339-1.419,4.417,4.417,0,0,1,2.5.751,4.908,4.908,0,0,1,1.67,2h3.089a7.514,7.514,0,0,0-2.671-4.091A7.246,7.246,0,0,0,7.68,8.4" transform="translate(0 -1.388)"/><path class="a" d="M32.027,18.775l.584-.334V19.61a2.5,2.5,0,0,1-.835,2.171,3.005,3.005,0,0,1-1.837.584,1.678,1.678,0,0,1-1.085-.334,1.651,1.651,0,0,1-.417-1.169,1.5,1.5,0,0,1,.751-1.336,3.592,3.592,0,0,1,1.419-.417ZM30.774,12.1c-2,0-3.423.5-4.174,1.586a4.765,4.765,0,0,0-.835,2.588h3.005a2.672,2.672,0,0,1,.417-1.085,1.858,1.858,0,0,1,1.586-.584,3.08,3.08,0,0,1,1.419.25,1.01,1.01,0,0,1,.5,1,.977.977,0,0,1-.668.918l-2.254.334a8.715,8.715,0,0,0-2.588.751A3.346,3.346,0,0,0,25.6,21.113a3.15,3.15,0,0,0,1,2.5,3.685,3.685,0,0,0,2.421.835,5.455,5.455,0,0,0,3.84-1.252v1.336h3.005V15.77a2.976,2.976,0,0,0-1.5-2.922,6.809,6.809,0,0,0-3.59-.751" transform="translate(-4.227 -1.996)"/><rect class="a" width="3.005" height="15.528" transform="translate(16.529 7.012)"/><path class="a" d="M45.025,12.534a4.447,4.447,0,0,0-2.087,1.67V12.7H40.1V24.555h2.922V18.879a4.293,4.293,0,0,1,.334-2.087,3.269,3.269,0,0,1,1-1.169,3.01,3.01,0,0,1,1.67-.5l.918.083V12.2l-.751.083Z" transform="translate(-6.624 -2.015)"/><rect class="a" width="10.185" height="2.671" transform="translate(51.617 8.649) rotate(-45.032)"/><rect class="a" width="2.671" height="7.68" transform="translate(45.832)"/><rect class="a" width="7.847" height="2.671" transform="translate(54.848 13.524)"/></g></svg>